/* XPM */
static char *_5162289010046ceda1ddd40a87653b05UaEumeJfj6XmML9[] = {
/* columns rows colors chars-per-pixel */
"32 32 60 1 ",
"  c None",
". c #FCAA17",
"X c #FCAB17",
"o c #FCAC17",
"O c #FCAC18",
"+ c #FCAD18",
"@ c #FCAD19",
"# c #FCAE18",
"$ c #FCAE19",
"% c #FCAF19",
"& c #FCB019",
"* c #FCB01A",
"= c #FCB11A",
"- c #FCB11B",
"; c #FCB21A",
": c #FDB21A",
"> c #FDB31B",
", c #FDB41B",
"< c #FDB51C",
"1 c #FDBA1D",
"2 c #FDBA1E",
"3 c #FDBB1E",
"4 c #FDBE20",
"5 c #FDBF21",
"6 c #FDC020",
"7 c #FDC021",
"8 c #FDC121",
"9 c #FDC322",
"0 c #FDC422",
"q c #FDC522",
"w c #FDC423",
"e c #FDC623",
"r c #FDC723",
"t c #FDC624",
"y c #FDC824",
"u c #FDC924",
"i c #FDC825",
"p c #FDCA25",
"a c #FDCE27",
"s c #FDD128",
"d c #FED328",
"f c #FED229",
"g c #FED329",
"h c #FED42A",
"j c #FED52A",
"k c #FED62A",
"l c #FED72A",
"z c #FED62B",
"x c #FED72B",
"c c #FDD92B",
"v c #FDDA2B",
"b c #FDDB2B",
"n c #FEDA2B",
"m c #FDD92C",
"M c #FED82C",
"N c #FED92C",
"B c #FDDA2C",
"V c #FDDB2C",
"C c #FEDA2C",
"Z c #FEDB2C",
/* pixels */
"                                ",
"                                ",
"            CCCCCCCC            ",
"         cCCCCCCCCCCCCC         ",
"        CCCCCCCCCCCCCCCC        ",
"      cCCCClu2;@@;2ulCCCCc      ",
"     cCCCCw@........@wCCCCC     ",
"     CCCl,.....@@.....<lCCC     ",
"    CCCl;......88......;lCCC    ",
"   cCCC,......@ll@......,CCCC   ",
"   CCC8.......8CC4.......wCCC   ",
"   CCl@......olCCl@......@lCC   ",
"  CCCu.....@<wCCCCw<@.....uCCc  ",
"  CCC2..8flCCCCCCCCCClf8..2CCC  ",
"  CCC;..;fCCCCCCCCCCCCl;..;CCC  ",
"  CCC@...@fCCCCCCCCCCf@...@CCC  ",
"  CCC@....@fCCCCCCCCf@....@CCC  ",
"  CCC;.....;CCCCCCCC;.....;CCC  ",
"  CCC2.....<CCCCCCCC<.....2CCC  ",
"  CCCu.....4CCCCCCCC4.....uCCC  ",
"   CCl@....tCCCwwCCCt....@lCC   ",
"   CCCw....aCu;..;wca....wCCC   ",
"   CCCC<...w;......;w...<CCCc   ",
"    CCCl;..............@lCCC    ",
"     CCCl,............<lCCC     ",
"     cCCCCw@........@wCCCCC     ",
"      cCCCClu2;@@;2ulCCCCC      ",
"        CCCCCCCCCCCCCCCC        ",
"         cCCCCCCCCCCCCC         ",
"            cCCCCCCc            ",
"                                ",
"                                "
};
