/* XPM */
static char *_ed5606a094b472fb96beb3e4e49a8d19HJ0q3vMqjQHuvwr[] = {
/* columns rows colors chars-per-pixel */
"64 64 182 2 ",
"   c None",
".  c #060506",
"X  c #0C0C0C",
"o  c #060807",
"O  c #110F0E",
"+  c #130F11",
"@  c #0E1110",
"#  c #141213",
"$  c #191616",
"%  c #191917",
"&  c #161718",
"*  c #191618",
"=  c #17191A",
"-  c #1C1B1B",
";  c #211E1D",
":  c #291E1B",
">  c #22201F",
",  c #1F1E20",
"<  c #211F23",
"1  c #1F2020",
"2  c #252424",
"3  c #2A2A2A",
"4  c #272729",
"5  c #312D2E",
"6  c #372D28",
"7  c #3A312F",
"8  c #32322F",
"9  c #2A2B30",
"0  c #302F31",
"q  c #2F3133",
"w  c #333334",
"e  c #3A3636",
"r  c #3A3936",
"t  c #363639",
"y  c #3C3B3B",
"u  c #383838",
"i  c #423D3D",
"p  c #343741",
"a  c #3D3D42",
"s  c #3D3C48",
"d  c #413E41",
"f  c #3F4041",
"g  c #434343",
"h  c #46464B",
"j  c #4C4C4C",
"k  c #494746",
"l  c #514B4A",
"z  c #4F514C",
"x  c #53504D",
"c  c #494C56",
"v  c #4E545C",
"b  c #535353",
"n  c #585556",
"m  c #52545B",
"M  c #59575A",
"N  c #5B5A5B",
"B  c #5D5856",
"V  c #615E5E",
"C  c #62605F",
"Z  c #4D5263",
"A  c #565763",
"S  c #565965",
"D  c #5C5D62",
"F  c #595B68",
"G  c #625E62",
"H  c #5E6063",
"J  c #5F6268",
"K  c #636263",
"L  c #6A6767",
"P  c #6C6967",
"I  c #63636A",
"U  c #6D6B6B",
"Y  c #6C6769",
"T  c #736C6D",
"R  c #74706E",
"E  c #6C6E77",
"W  c #6C727D",
"Q  c #727273",
"!  c #73767C",
"~  c #7C7C7C",
"^  c #79787A",
"/  c #867F7A",
"(  c #83817F",
")  c #506A8C",
"_  c #4E6C92",
"`  c #6E7787",
"'  c #747B8B",
"]  c #747987",
"[  c #827F82",
"{  c #7E848E",
"}  c #7B8293",
"|  c #6E87AB",
" . c #838384",
".. c #898786",
"X. c #8C8B8D",
"o. c #878788",
"O. c #848994",
"+. c #848C9B",
"@. c #868892",
"#. c #8A909C",
"$. c #959494",
"%. c #9B9A9D",
"&. c #97989C",
"*. c #8C93AA",
"=. c #969AA6",
"-. c #8594B4",
";. c #919DBD",
":. c #959DB5",
">. c #A4A4A4",
",. c #AAA8A5",
"<. c #ADA9A8",
"1. c #A8A7A8",
"2. c #ABAEB7",
"3. c #BBBBBC",
"4. c #B7B6B7",
"5. c #C2BABA",
"6. c #9FAEC9",
"7. c #A0AEC3",
"8. c #A9B2C7",
"9. c #AEB9CD",
"0. c #A7B4CD",
"q. c #BEBDC3",
"w. c #B2BCCC",
"e. c #ADBAD4",
"r. c #A7B6D1",
"t. c #B0BCD4",
"y. c #B2BFDB",
"u. c #BCC4D6",
"i. c #B3C2DB",
"p. c #BDC5DA",
"a. c #B5C3D7",
"s. c #B4C4E1",
"d. c #BBCAE4",
"f. c #B7C7E6",
"g. c #C3C2C3",
"h. c #C4C6CA",
"j. c #C8C7C9",
"k. c #CCCBCC",
"l. c #D0CFCE",
"z. c #D2D0CF",
"x. c #CCCDD3",
"c. c #C4CCDC",
"v. c #C5CBD6",
"b. c #D2CED1",
"n. c #CCD2D7",
"m. c #D3D2D4",
"M. c #D8D9DA",
"N. c #E0DEDD",
"B. c #C1CEE4",
"V. c #C2CEEB",
"C. c #CAD3E4",
"Z. c #CBD4EB",
"A. c #CDD9EA",
"S. c #CFD8E5",
"D. c #DADCE4",
"F. c #D3DDEE",
"G. c #D4DAE4",
"H. c #C6D4F0",
"J. c #D4DDF1",
"K. c #DDE3EE",
"L. c #D5E0F1",
"P. c #DDE4F1",
"I. c #E5E3E3",
"U. c #E8E9E9",
"Y. c #E4E9E8",
"T. c #F1EFEF",
"R. c #E6EAF4",
"E. c #EBEEF4",
"W. c #EBEFF9",
"Q. c #E0E6F1",
"!. c #ECF2FA",
"~. c #F3F3F4",
"^. c #FBFAF7",
"/. c #F4F6FA",
"(. c #F6F9FD",
"). c #FAFBFE",
"_. c #FCFDFF",
"`. c white",
"'. c #FFFEFF",
"]. c #FEFDFD",
"[. c #FEFDFD",
"{. c #F8F6F3",
/* pixels */
"                                                                                                                                ",
"                                                                                                                                ",
"  3 3 3 w w w w w 0 0 0 w w 3 3 3 3 3 3 3 3 3 3 3 3 3 3 3 3 3 3 3 3 3 3 3 3 3 3 3 3 3 3 3 3 3 3 3 3 3 w w w w w w w w w 3 3 3 3 ",
"  3 4 w g g g g g g g g g j g 4 3 3 3 3 3 3 3 3 3 3 3 3 3 3 3 3 3 3 3 3 3 3 3 3 3 3 3 3 4 3 3 3 3 w j g g g g g g j j j y 3 3 3 ",
"  3 w y g N N N n b b b b n N w w j j j j j j j j j j j j j j j j j j j j j j j j j j j g j b g 2 g N b b b b n j g g j g y 3 3 ",
"  3 y g b y w y b n b b b b N j 3 j N n N n b b b b b b b b b b b b b b b b b b b n N n n N n 3 3 n n b b b b N y 4 2 y b g w 4 ",
"  3 w b j w y 2 j N b b b b b N y 3 b N y y g g g g g g g g g g g g g g g g g g g 3 g n n n y 4 j N b b b b b n w g y w N g w 3 ",
"  3 w b g g n 3 j n b b b b b n b 3 y N 3 w j j j j j j j j j j j j j j j j j j g - w N n g 4 y N b b b b b b n w g y w M g w 4 ",
"  3 w b j g x 3 j n b b b b b b N g 3 b g 3 w w w w w w w w w w w w w w w w w w w 3 g N j w 3 b n b b b b b b n w g y w n g w 4 ",
"  3 w b j g b 3 j n b b b b b b b n y y n n b b b b b b b b b b b b b b b b b b n n N n f 3 g N b b b b b b b n w g y w n g w 4 ",
"  3 w b j g j 3 j n b b b b b b b N g 3 g j j j j j j j j j j j j j j j g g g g g g g y 3 w n n b b b b b b b n w g y w M g w 3 ",
"  3 w b j g b 3 j n b b b b b b b N j 2 3 0 w w w w w w w w w w w w w w w w w 3 3 3 3 3 w j N b b b b b b b b n y g g w M g w 3 ",
"  3 w b j g j 4 j n b b b b b b b n j g j g j j 3 # # # # # # # # # # # # + # b j j j j b n b b b b b b b b b n w j g w N g w 3 ",
"  3 w b j 4 4 4 j M b b b b b b b b b N n n n n y 3 w u w u u u u w u y e 8 3 N n n n n n b b b b b b b b b b N w w 3 w N g w 3 ",
"  3 w j n g g g z b b b b b b b b b b b b b $ - D i.).`.`.`.`.`.`.`.`.`.`.B.f.h # D b b b b b b b b b b b b b n g 3 3 g M g w 3 ",
"  3 w j n N N N b b b b b b b b b b b b b b % # 9.r.).`.`.`.`.`.`.`.`.`.`.v.e.f O N b b b b b b b b b b b b b b n n n n b g w 3 ",
"  3 w j n b b b b b b b b b b b b b b n 4 t D 0.(.`.`.`.`.`.`.`.`.`.`.`.`.).).B.e.D ; K b b b b b b b b b b b b b b b b b g w 4 ",
"  3 w j n b b b b b b b b b b b b b b b # 2 f.y.`.`.`.`.`.`.`.`.`.`.`.`.`.`.`.F.i.F X N b b b b b b b b b b b b b b b b b g w 3 ",
"  3 w j n b b b b b b b b b b b b b N y # < f.y.`.`.`.`.`.`.`.`.`.`.`.`.`.`.`.L.s.S X g j n b b b b b b b b b b b b b b b g w 4 ",
"  3 w j n b b b b b b b b b b b b b N y # 2 f.i.`.`.`.`.`.`.`.`.`.`.`.`.`.`.`.F.s.S X a j N b b b b b b b b b b b b b b b g w 4 ",
"  3 w j n b b b b b b b b b b b b b n g # 2 f.t.`.`.`.`.`.`.`.`.`.`.`.`.`.`.`.L.s.S X b j n b b b b b b b b b b b b b b b g w 4 ",
"  3 w j n b b b b b b b b b b b b b b N # - V.t.`.`.`.`.`.`.`.`.`.`.`.`.`.`.`.F.y.A X K b b b b b b b b b b b b b b b b b g w 4 ",
"  3 w j n b b b b b b b b b b b b b n g # - ' ] >.>.>.>.>.>.1.1.>.>.>.>.>.>.>.O.] a X j j n b b b b b b b b b b b b b b b g w 3 ",
"  3 w j n b b b b b b b b b b b b b N u # - 2 2 - % - % # X X X O O # % - - - 1 ; 2 o f j N b b b b b b b b b b b b b b b g w 3 ",
"  3 w j n b b b b b b b b b b b b b n g & = = - - 2 ; 2 x K K K P P V 3 2 - - - % 2 o j j n b b b b b b b b b b b b b b b g w 3 ",
"  3 w j n b b b b b b b b b b b b b b N & - y x % 2 5 3 g.].`.`.`.`.~.d n - - e x 5 X N b b b b b b b b b b b b b b b b b g w 3 ",
"  3 w j n b b b b b b b b b b b b b n g # - v G - & B G x.`.^.I.T.`.{.K K , $ h I 3 X j j n b b b b b b b b b b b b b b b g w 3 ",
"  3 w j n b b b b b b b b b b b b b N y & 2 e.v.2 = g.^.`.`.g.-  .].`.^.^.y $ *.J.Z # g j N b b b b b b b b b b b b b b b g w 3 ",
"  3 w j n b b b b b b b b b b b b b n g & < w.u.3 2 j.`.`.].j.2  .].`.`.`.e ; *.Z.c O j j n b b b b b b b b b b b b b b b g w 4 ",
"  3 w j n b b b b b b b b b b b b b b N O 3 ).`.~.~.`.`.$.6 r g g 7 l ).`.~.~.^.`.o.. K n b b b b b b b b b b b b b b b b g w 3 ",
"  3 w j n b b b b b b b b b b b b b n j # 3 `.`.`.`.`.`./ : 7 y y : 7 ).`.`.`.`.`.[ X b b n b b b b b b b b b b b b b b b g w 4 ",
"  3 w j n b b b b b b b b b b b b N d j l.j.9.r.).`.>.j g.m.N.I.I.M.M.U Q ~.`.A.-.n.z.w u N b b b b b b b b b b b b b b b g w 4 ",
"  3 w j n b b b b b b b b b b b b V # n `.).-.| /.`.^ 2 3.`.`.`.`.`.~.i 0 E.`.i._ K.`.1.O b b b b b b b b b b b b b b b b g w 4 ",
"  3 w j n b b b b b b b b D M N M h # j P.J.G.R.C.p.h.4.g.3.o.U ~ 4.q.3.j.n.c.S.D.P.F.+.X b b b b b b b b b b b b b b b b g w 4 ",
"  3 w j n b b b b b b b b j * & & & - p u.d.].].;.) !.`.j.[ 0 2 4 ^ X.`.`.;._ !.`.K.Z.` X b b b b b b b b b b b b b b b b g w 3 ",
"  3 w j n N N N N N N N N g w 3 w 3 3 3 E W Q.P.n.D.2.$.%. .g 3 w  . .$.X.n.G.K.R.O.{ A b K b b b b b b b b b b b b b b b g w 3 ",
"  3 w j K % % & % % = & & j ..y y y y w - 4 H.a.).`.n # w <.V 3 j X.~ % ; U.`.F.S.Z - U N N b b b b b b b b b b b b b b b g w 3 ",
"  3 w j K % - 4 2 2 2 4 4 w n y y u y w - 2 ' { j.k.n w y ( ^ ..~ Q K 3 3 3.k.=.} p & g N K b b b b b b b b b b b b b b b g w 3 ",
"  3 w j K & 4 N n y i y y y g y u y g d w u % % 3 5 5 y y u $.`.l.i y u y u w , - - & $ # g b b b b b b b b b b b b b b b g w 3 ",
"  3 w j K u g j g w y y y y a a m f g b V N * # K R U T U K >./.x.K K K K P T 3 # 2 3 y i N b b b b b b b b b b b b b b b g w 3 ",
"  3 w j n b b X % C L y y y y } J.2.j >.{.~.* * I.`.`.].`.`.(.6.F.`.`.`.`.`.`.M # ` p.R.`.n # w b b b b b b b b b b b b b g w 4 ",
"  3 w j n b n & 2 N N y y u y ] C.=.b &.`.~.$ % U.`.].].`.`./.7.P.`.`.).].`.`.n & W 8.~.`.k.# t b b b b b b b b b b b b b g w 3 ",
"  3 w j n b b b b $ % - - - % - & Q ^.`.`.~.# % U.`.Z.d.} K I N D I E V.y.^.`.b # N - m.`.k.# y b b b b b b b b b b b b b g w 4 ",
"  3 w j n b b b b # - - - - ; $ # ~ `.`.`.T.# - U.`.C.B.{ H D Y V N K f.e.^.`.n # x i j.`.k.+ y b b b b b b b b b b b b b g w 4 ",
"  3 w j n b b b b b b b b b b N O d o.~ H N & - ^ X.^ @.#.u.c.I.D.0.8.! ! o.X.0 & > - u j N n b b b b b b b b b b b b b b g w 4 ",
"  3 w j n b b b b b b b b b b N & 5 C b w y * % k l l b +.e.!.^.(.a.p.N N z b 2 * # & # @ g b b b b b b b b b b b b b b b g w 4 ",
"  3 w j n b b b b b b b b b b b N N 3 3 - ; = % :.8.m.M.h.] &.>.&.{ @.m.m.9.u.a X g w w n N b b b b b b b b b b b b b b b g w 3 ",
"  3 w j n b b b b b b b b b b b b V & & = % $ - i.V./.`.<.i V U n k G ).`.B.A.s @ j y y j n b b b b b b b b b b b b b b b g w 3 ",
"  3 w j N N N N b b b b b b b b b n N K K K K K A m M.`.Y.5.X.> n g.b.`.`.E F H K N N N b b b b b b b b b b b b b b b b b g w 3 ",
"  3 w j b y w g b b b b b b b b b b b b b b b b r % j.].^.^.,.+ N ^.].`.`.u % b b b b b b b b b b b b b b b b b b b b b b g w 3 ",
"  3 w b g 4 3 3 b b b b b b b b b b b b b b b b w % q.!.!.W.=.# M R.W.!.R.w * N b b b b b b b b b b b b b b b n N n N n b g w 3 ",
"  3 w b y g n w b b b b b b b b b b b b N N N N 3 = J J J D J # c D I D N 9 & N N N N b b b b b b b b b b b n j w w y b n g w 3 ",
"  3 w b g y j w b n b b b b b b b b n N n n n N b k D n N N K g D n n n n b g K n n n n N n b b b b b b b b N g 3 w 4 b n g w 4 ",
"  3 w b g y j w b n b b b b b b b n j w y y y y u y y y y y y y u y y y y y y y u y y w y b n b b b b b b b M g y b w j n g w 3 ",
"  3 w b g y j w b n b b b b b b b N g 1 w w 3 3 3 0 w w 3 3 w 3 3 3 w 3 3 3 3 3 3 3 w w 4 g N b b b b b b b M g y z 3 j n g w 3 ",
"  3 w b g y j 0 b n b b b b b b b N y w b N n n n n n n n n n n n n n n n n n n n n N j y 3 b n b b b b b b N g y j 3 j n g w 3 ",
"  3 w b g y j w b n b b b b b b N j 3 k j g y y y y y y y y y y y y y y y y y y y y j n g 3 y N b b b b b b N g y j 3 j n g w 3 ",
"  3 w b y g n 0 b n b b b b b n n w w n w 3 y y y y y y y y y y y y y y y y y y y w w n j y 3 j n b b b b b M f y n w j n g w 3 ",
"  3 w b g 3 w 3 b b b b b b b N y 3 j N w u j j j j j j j j j j j j j j j j j j j f w n n g 3 y N b b b b b N g w g 3 j N j w 4 ",
"  3 w b j 3 3 y b b b b b b n b 3 y n n j y g g g g g g g g g g g g g g g g g g g g j n n b y 3 g N b b b b n j 3 3 w n b g w 3 ",
"  3 w g n N N N n n n n n n N w w n N n N N N N N N N N N N N N N N N N N N N N N N N n n N j w w n N n n n n n b n N b g y 3 3 ",
"  3 3 y g j j j j j j j j j j 3 w w w w w w w w w w w w w w w w w w w w w w w w w w w w w w w w 4 g b j j j j j j j j g y 3 3 3 ",
"  3 3 w y w w w w w w w w w y w 4 4 4 4 4 4 4 4 4 4 4 4 4 4 4 4 4 4 4 4 4 4 4 4 4 4 4 4 4 4 4 3 3 w y w w w w w y w y w 3 3 3 3 ",
"  3 3 3 3 3 3 3 3 3 3 3 3 3 3 3 3 3 3 3 3 3 3 3 3 3 3 3 3 3 3 3 3 3 3 3 3 3 3 3 3 3 3 3 3 3 3 3 3 3 3 3 3 3 3 3 3 3 3 3 3 3 3 3 "
};
